{"accessors" : [{"bufferView" : 0, "byteOffset" : 0, "componentType" : 5123, "count" : 38940, "type" : "SCALAR", "max" : [38939], "min" : [0]}, {"bufferView" : 1, "byteOffset" : 0, "componentType" : 5126, "count" : 38940, "type" : "VEC3", "max" : [934622, 934626, 934630], "min" : [86, 90, 94]}, {"bufferView" : 1, "byteOffset" : 12, "componentType" : 5126, "count" : 38940, "type" : "VEC3", "max" : [934634, 934638, 934642], "min" : [98, 102, 106]}], "asset" : {"generator" : "Aspose.3D 20.8", "version" : "2.0"}, "buffers" : [{"uri" : "buffer.bin", "byteLength" : 1012448}], "bufferViews" : [{"buffer" : 0, "byteOffset" : 0, "byteLength" : 77880, "target" : 34963}, {"buffer" : 0, "byteOffset" : 77884, "byteLength" : 934560, "byteStride" : 24, "target" : 34962}], "meshes" : [{"primitives" : [{"attributes" : {"POSITION" : 1, "NORMAL" : 2}, "indices" : 0, "mode" : 4}]}], "nodes" : [{"mesh" : 0, "name" : ""}], "scene" : 0, "scenes" : [{"nodes" : [0]}]}