{"accessors" : [{"bufferView" : 0, "byteOffset" : 0, "componentType" : 5123, "count" : 48660, "type" : "SCALAR", "max" : [48659], "min" : [0]}, {"bufferView" : 1, "byteOffset" : 0, "componentType" : 5126, "count" : 48660, "type" : "VEC3", "max" : [1167765.875, 1167769.875, 1167773.875], "min" : [-50.071998596191406, -46.071998596191406, -42.071998596191406]}, {"bufferView" : 1, "byteOffset" : 12, "componentType" : 5126, "count" : 48660, "type" : "VEC3", "max" : [1167777.875, 1167781.875, 1167785.875], "min" : [-38.071998596191406, -34.071998596191406, -30.071998596191406]}], "asset" : {"generator" : "Aspose.3D 20.8", "version" : "2.0"}, "buffers" : [{"uri" : "buffer.bin", "byteLength" : 1265168}], "bufferViews" : [{"buffer" : 0, "byteOffset" : 0, "byteLength" : 97320, "target" : 34963}, {"buffer" : 0, "byteOffset" : 97324, "byteLength" : 1167840, "byteStride" : 24, "target" : 34962}], "meshes" : [{"primitives" : [{"attributes" : {"POSITION" : 1, "NORMAL" : 2}, "indices" : 0, "mode" : 4}]}], "nodes" : [{"mesh" : 0, "name" : ""}], "scene" : 0, "scenes" : [{"nodes" : [0]}]}